<?xml version="1.0" standalone="no"?>
<!DOCTYPE svg PUBLIC "-//W3C//DTD SVG 20010904//EN"
 "http://www.w3.org/TR/2001/REC-SVG-20010904/DTD/svg10.dtd">
<svg version="1.0" xmlns="http://www.w3.org/2000/svg"
 width="468.000000pt" height="499.000000pt" viewBox="0 0 468.000000 499.000000"
 preserveAspectRatio="xMidYMid meet">

<g transform="translate(0.000000,499.000000) scale(0.100000,-0.100000)"
fill="white" stroke="none">
<path d="M426 4889 c-62 -15 -153 -68 -197 -116 -22 -24 -55 -74 -72 -111
l-32 -67 0 -1776 0 -1775 37 -76 c45 -91 103 -147 196 -191 l67 -32 806 -3
807 -3 3 -167 4 -168 37 -76 c45 -91 103 -147 196 -191 l67 -32 976 0 975 0
76 37 c91 45 147 103 191 196 l32 67 0 1775 0 1775 -32 67 c-44 93 -100 151
-191 196 l-76 37 -807 3 -807 3 -3 167 -4 168 -37 76 c-45 91 -103 147 -196
191 l-67 32 -955 2 c-556 1 -971 -3 -994 -8z m416 -258 c3 -118 12 -141 72
-185 27 -21 38 -21 486 -21 448 0 459 0 486 21 60 44 69 67 72 185 l4 109 175
0 c212 0 240 -7 308 -75 65 -65 75 -99 75 -267 l0 -135 -89 -5 c-162 -10 -279
-86 -349 -226 l-37 -76 -3 -808 -3 -808 -176 0 c-109 0 -191 5 -217 12 -55 16
-138 99 -154 154 -8 29 -12 143 -12 378 l0 336 -81 0 -80 0 3 -367 3 -368 32
-67 c44 -93 100 -151 191 -196 l76 -37 208 -3 208 -4 0 -639 0 -639 -776 0
c-581 0 -787 3 -818 12 -55 16 -138 99 -154 154 -17 60 -17 3448 0 3508 15 51
99 137 148 153 20 6 115 11 217 12 l181 1 4 -109z m958 29 l0 -80 -400 0 -400
0 0 80 0 80 400 0 400 0 0 -80z m962 -669 c3 -118 12 -141 72 -185 27 -21 38
-21 486 -21 448 0 459 0 486 21 60 44 69 67 72 185 l4 109 175 0 c109 0 191
-5 217 -12 55 -16 138 -99 154 -154 17 -60 17 -3448 0 -3508 -16 -55 -99 -138
-154 -154 -59 -17 -1849 -17 -1908 0 -55 16 -138 99 -154 154 -9 31 -12 255
-12 898 l0 856 462 0 463 0 -130 -130 -130 -130 58 -58 57 -57 210 210 c191
192 210 214 210 245 0 31 -19 53 -207 242 -114 114 -212 208 -217 208 -14 0
-106 -91 -106 -104 0 -6 57 -68 127 -138 l128 -128 -463 0 -462 0 0 776 c0
581 3 787 12 818 15 51 99 137 148 153 20 6 115 11 217 12 l181 1 4 -109z
m958 29 l0 -80 -400 0 -400 0 0 80 0 80 400 0 400 0 0 -80z"/>
<path d="M1000 3460 l0 -80 80 0 80 0 0 80 0 80 -80 0 -80 0 0 -80z"/>
<path d="M1320 3460 l0 -80 80 0 80 0 0 80 0 80 -80 0 -80 0 0 -80z"/>
<path d="M1640 3460 l0 -80 80 0 80 0 0 80 0 80 -80 0 -80 0 0 -80z"/>
</g>
</svg>
