<?xml version="1.0" standalone="no"?>
<!DOCTYPE svg PUBLIC "-//W3C//DTD SVG 20010904//EN"
 "http://www.w3.org/TR/2001/REC-SVG-20010904/DTD/svg10.dtd">
<svg version="1.0" xmlns="http://www.w3.org/2000/svg"
 width="202.000000pt" height="222.000000pt" viewBox="0 0 202.000000 222.000000"
 preserveAspectRatio="xMidYMid meet">

<g transform="translate(0.000000,222.000000) scale(0.100000,-0.100000)"
fill="white" stroke="none">
<path d="M185 2155 c-24 -23 -25 -30 -25 -140 l0 -115 65 0 65 0 0 70 0 70
770 0 770 0 0 -930 0 -930 -768 2 -767 3 -3 28 c-3 26 -5 27 -68 27 l-64 0 0
-73 c0 -79 16 -111 63 -122 12 -3 399 -4 859 -3 l837 3 23 23 23 23 0 1020 0
1021 -28 24 -28 24 -850 0 -850 0 -24 -25z"/>
<path d="M36 1839 c-32 -25 -35 -70 -6 -99 18 -18 33 -20 183 -20 89 0 167 4
173 8 15 10 34 47 34 67 0 9 -11 27 -25 40 -23 24 -28 25 -178 25 -141 0 -157
-2 -181 -21z"/>
<path d="M160 1550 l0 -130 65 0 66 0 -3 128 -3 127 -62 3 -63 3 0 -131z"/>
<path d="M975 1557 c-86 -42 -125 -104 -125 -199 0 -137 124 -238 256 -209
135 31 210 176 153 301 -25 57 -44 77 -93 102 -62 32 -132 33 -191 5z"/>
<path d="M30 1360 c-26 -26 -26 -74 0 -100 18 -18 33 -20 184 -20 l165 0 20
26 c26 34 26 54 0 88 l-20 26 -165 0 c-151 0 -166 -2 -184 -20z"/>
<path d="M160 1075 l0 -125 65 0 65 0 0 125 0 125 -65 0 -65 0 0 -125z"/>
<path d="M832 1089 c-128 -85 -199 -231 -190 -389 l3 -55 418 -3 417 -2 0 77
c0 172 -78 315 -209 386 l-49 27 -48 -25 c-66 -35 -162 -35 -228 0 -26 14 -49
25 -50 25 -2 0 -31 -18 -64 -41z"/>
<path d="M30 880 c-26 -26 -26 -74 0 -100 18 -18 33 -20 184 -20 l165 0 20 26
c26 34 26 54 0 88 l-20 26 -165 0 c-151 0 -166 -2 -184 -20z"/>
<path d="M160 590 l0 -130 65 0 65 0 0 130 0 130 -65 0 -65 0 0 -130z"/>
<path d="M30 400 c-25 -25 -26 -72 -2 -93 16 -14 45 -17 190 -17 l172 0 16 25
c18 28 13 64 -12 89 -13 13 -44 16 -180 16 -151 0 -166 -2 -184 -20z"/>
</g>
</svg>
