<?xml version="1.0" standalone="no"?>
<!DOCTYPE svg PUBLIC "-//W3C//DTD SVG 20010904//EN"
 "http://www.w3.org/TR/2001/REC-SVG-20010904/DTD/svg10.dtd">
<svg version="1.0" xmlns="http://www.w3.org/2000/svg"
 width="241.000000pt" height="237.000000pt" viewBox="0 0 241.000000 237.000000"
 preserveAspectRatio="xMidYMid meet">

<g transform="translate(0.000000,237.000000) scale(0.100000,-0.100000)"
fill="white" stroke="none">
<path d="M1069 2335 c-117 -16 -288 -72 -389 -127 -217 -118 -404 -316 -507
-538 -47 -102 -90 -261 -103 -384 -26 -240 48 -527 192 -746 54 -82 192 -226
277 -289 194 -144 432 -223 676 -225 153 -1 243 14 379 61 181 63 294 131 427
260 147 142 235 277 299 458 83 237 89 459 18 700 -62 210 -162 372 -330 530
-181 170 -411 276 -668 305 -106 12 -150 11 -271 -5z m396 -164 c367 -89 650
-371 747 -744 18 -66 22 -111 22 -237 0 -174 -17 -266 -76 -408 -93 -223 -307
-437 -533 -531 -143 -60 -222 -75 -400 -75 -140 0 -172 4 -255 26 -629 169
-939 858 -649 1442 56 112 115 190 212 282 142 134 332 227 527 260 110 18
298 11 405 -15z"/>
<path d="M790 1751 c-6 -12 -10 -100 -10 -218 0 -227 6 -252 75 -290 l40 -22
-9 -296 c-8 -277 -8 -297 9 -315 25 -27 79 -26 106 1 22 22 22 24 15 319 l-8
297 32 13 c17 7 43 29 58 48 l27 35 3 214 c3 193 1 214 -14 220 -9 3 -24 2
-33 -4 -13 -8 -16 -33 -19 -141 -3 -139 -10 -160 -52 -147 -19 6 -20 14 -20
140 0 73 -3 140 -6 149 -8 21 -50 21 -58 0 -3 -9 -6 -73 -6 -144 0 -101 -3
-130 -15 -140 -8 -7 -22 -10 -30 -6 -12 4 -15 29 -15 144 0 142 -5 162 -42
162 -9 0 -22 -9 -28 -19z"/>
<path d="M1405 1758 c-89 -49 -142 -179 -133 -326 6 -93 33 -161 88 -217 l39
-40 3 -271 c3 -251 4 -274 22 -293 25 -27 70 -27 98 1 21 21 21 24 15 294 l-7
274 30 15 c37 19 75 69 95 124 20 57 20 211 0 279 -19 64 -70 132 -115 154
-39 20 -105 23 -135 6z"/>
</g>
</svg>
