<?xml version="1.0" standalone="no"?>
<!DOCTYPE svg PUBLIC "-//W3C//DTD SVG 20010904//EN"
 "http://www.w3.org/TR/2001/REC-SVG-20010904/DTD/svg10.dtd">
<svg version="1.0" xmlns="http://www.w3.org/2000/svg"
 width="32.000000pt" height="32.000000pt" viewBox="0 0 32.000000 32.000000"
 preserveAspectRatio="xMidYMid meet">

<g transform="translate(0.000000,32.000000) scale(0.100000,-0.100000)"
fill="white" stroke="none">
<path d="M135 301 c-11 -5 -36 -10 -55 -11 -19 0 -43 -7 -52 -14 -19 -14 -25
-32 -8 -21 16 10 12 -11 -5 -25 -19 -16 -19 -84 0 -125 l13 -30 1 38 c1 38 9
45 28 26 8 -8 13 -5 18 10 9 30 49 54 75 46 11 -3 27 -20 35 -36 20 -37 31
-37 54 1 21 34 34 27 47 -25 4 -17 9 -34 12 -39 9 -16 22 20 22 64 0 51 -25
100 -64 125 -30 20 -93 28 -121 16z"/>
<path d="M123 150 c-1 -11 2 -22 6 -24 4 -3 7 4 8 14 1 11 -2 22 -6 24 -4 3
-7 -4 -8 -14z"/>
<path d="M62 104 c-43 -30 -16 -105 38 -104 8 1 0 7 -17 15 -27 11 -33 20 -33
45 0 38 35 59 69 41 24 -13 29 -59 9 -80 -11 -11 -10 -12 0 -6 7 4 18 19 23
33 8 21 12 23 19 12 8 -13 10 -13 10 1 0 27 36 52 64 45 46 -11 46 -81 0 -92
-17 -4 -31 0 -44 11 -12 11 -20 13 -20 6 0 -6 11 -17 25 -23 52 -23 102 31 76
81 -17 32 -58 38 -85 12 -27 -26 -32 -26 -63 -1 -31 24 -42 25 -71 4z"/>
</g>
</svg>
