<?xml version="1.0" standalone="no"?>
<!DOCTYPE svg PUBLIC "-//W3C//DTD SVG 20010904//EN"
 "http://www.w3.org/TR/2001/REC-SVG-20010904/DTD/svg10.dtd">
<svg version="1.0" xmlns="http://www.w3.org/2000/svg"
 width="263.000000pt" height="263.000000pt" viewBox="0 0 263.000000 263.000000"
 preserveAspectRatio="xMidYMid meet">

<g transform="translate(0.000000,263.000000) scale(0.100000,-0.100000)"
fill="#fff" stroke="none">
<path d="M576 2584 c-58 -16 -180 -72 -232 -108 -103 -70 -196 -186 -250 -311
-56 -129 -55 -119 -52 -915 l3 -735 23 -63 c70 -194 246 -355 442 -403 44 -11
203 -14 780 -14 l725 0 86 27 c249 78 427 265 489 513 19 76 20 114 20 742 0
749 2 731 -77 893 -39 79 -61 109 -132 181 -72 71 -102 93 -181 132 -165 80
-130 77 -906 76 -540 -1 -700 -4 -738 -15z m319 -598 c45 -35 65 -79 65 -144
0 -87 -62 -152 -152 -160 -71 -6 -119 15 -157 69 -26 35 -31 51 -31 99 0 66
24 110 80 148 50 34 142 28 195 -12z m922 -422 c63 -18 134 -76 163 -134 46
-91 53 -150 57 -478 4 -237 2 -316 -7 -327 -10 -12 -40 -15 -144 -15 -72 0
-136 4 -143 8 -9 5 -13 88 -15 302 -3 275 -4 297 -23 330 -28 48 -78 72 -138
67 -55 -5 -93 -29 -122 -78 -19 -31 -20 -55 -23 -319 -2 -182 -7 -289 -14
-297 -12 -15 -264 -19 -286 -5 -10 7 -12 108 -10 473 l3 464 143 3 142 3 0
-57 0 -56 51 46 c27 25 73 54 102 65 66 25 187 27 264 5z m-879 -476 l2 -468
-22 -5 c-13 -3 -79 -4 -148 -3 l-125 3 -3 473 -2 473 147 -3 148 -3 3 -467z"/>
</g>
</svg>
