<?xml version="1.0" standalone="no"?>
<!DOCTYPE svg PUBLIC "-//W3C//DTD SVG 20010904//EN"
 "http://www.w3.org/TR/2001/REC-SVG-20010904/DTD/svg10.dtd">
<svg version="1.0" xmlns="http://www.w3.org/2000/svg"
 width="480.000000pt" height="492.000000pt" viewBox="0 0 480.000000 492.000000"
 preserveAspectRatio="xMidYMid meet">

<g transform="translate(0.000000,492.000000) scale(0.100000,-0.100000)"
fill="white" stroke="none">
<path d="M2194 4834 c-12 -3 -35 -19 -51 -37 -17 -18 -176 -250 -355 -517
-496 -742 -1123 -1678 -1304 -1947 -90 -134 -168 -260 -173 -281 -12 -41 -4
-82 24 -129 9 -15 78 -68 152 -118 135 -89 142 -96 907 -856 849 -843 803
-804 931 -804 131 0 49 -74 1242 1118 1198 1196 1126 1116 1126 1252 1 132 37
91 -776 902 -805 805 -763 768 -859 743 -39 -10 -139 -108 -965 -933 -508
-507 -923 -916 -923 -909 0 13 89 149 744 1125 199 296 372 555 386 577 14 22
86 131 161 242 140 209 166 260 154 306 -17 71 -36 91 -167 178 -117 79 -135
88 -182 90 -28 1 -60 0 -72 -2z m192 -195 c110 -75 125 -98 87 -131 -10 -9
-106 -34 -213 -57 -200 -42 -234 -47 -228 -33 2 5 46 72 98 150 117 173 109
171 256 71z m-136 -459 c0 -6 -28 -52 -61 -103 -34 -51 -63 -93 -63 -94 -3 -3
-409 -93 -423 -93 -23 0 -13 23 50 115 l62 90 125 28 c325 73 310 70 310 57z
m968 -234 c51 -51 92 -102 92 -112 0 -19 -236 -264 -254 -264 -15 0 1 452 17
462 31 20 56 5 145 -86z m-426 -433 l-4 -218 -81 -82 c-45 -46 -85 -83 -89
-83 -5 0 -8 100 -8 221 l0 221 87 84 c48 45 90 81 93 79 4 -2 5 -102 2 -222z
m1186 -325 c304 -304 562 -570 573 -590 23 -45 24 -105 4 -156 -19 -44 -2062
-2096 -2134 -2143 -52 -33 -122 -39 -174 -14 -18 8 -284 267 -592 575 l-560
560 1160 1160 c638 638 1162 1160 1165 1160 2 0 254 -249 558 -552z m-2079
460 c-20 -38 -107 -164 -121 -175 -7 -6 -101 -30 -208 -53 -107 -22 -200 -43
-207 -45 -29 -10 -18 18 45 111 l67 99 65 12 c36 7 124 25 195 42 72 16 140
30 153 30 20 1 21 -1 11 -21z m453 -579 l-4 -217 -89 -88 -89 -89 0 212 c0
116 4 222 9 235 13 33 161 182 170 172 4 -5 6 -106 3 -225z m-792 76 c0 -3
-29 -49 -64 -103 l-65 -97 -118 -24 c-65 -13 -154 -32 -198 -42 -94 -22 -115
-23 -115 -6 1 6 29 52 63 102 l62 90 190 41 c181 40 245 50 245 39z m348 -542
l-3 -193 -85 -85 c-46 -46 -88 -81 -92 -77 -4 4 -5 106 -1 226 l6 218 86 84
86 84 3 -33 c2 -17 2 -119 0 -224z m-698 24 c0 -9 -107 -177 -124 -194 -7 -7
-429 -93 -434 -88 -3 3 24 49 60 103 l66 99 148 33 c82 18 174 38 204 45 72
17 80 17 80 2z m258 -437 l-4 -221 -84 -84 c-47 -47 -87 -81 -91 -77 -3 4 -4
106 -1 226 l5 220 78 78 c42 43 83 78 89 78 10 0 12 -52 8 -220z m-438 -100
c24 -24 24 -12 5 -185 -26 -245 -32 -293 -39 -304 -4 -6 -22 -11 -39 -11 -29
0 -55 23 -235 203 -111 112 -202 208 -202 214 0 6 9 21 19 34 18 22 34 26 223
45 259 28 245 27 268 4z"/>
<path d="M2980 2340 c-80 -22 -221 -60 -315 -85 -467 -123 -443 -115 -484
-158 -30 -33 -39 -103 -18 -143 9 -16 166 -179 351 -363 l334 -334 55 -5 c53
-4 57 -3 96 34 l41 39 115 432 c122 460 131 512 95 563 -21 30 -76 60 -107 59
-10 0 -83 -18 -163 -39z"/>
<path d="M609 2009 c-23 -23 -18 -54 14 -81 26 -23 42 -23 67 2 27 27 25 55
-6 79 -33 26 -49 26 -75 0z"/>
<path d="M875 1750 c-24 -26 -13 -66 25 -85 29 -15 31 -15 54 9 28 27 25 58
-7 81 -29 20 -50 19 -72 -5z"/>
</g>
</svg>
