<?xml version="1.0" standalone="no"?>
<!DOCTYPE svg PUBLIC "-//W3C//DTD SVG 20010904//EN"
 "http://www.w3.org/TR/2001/REC-SVG-20010904/DTD/svg10.dtd">
<svg version="1.0" xmlns="http://www.w3.org/2000/svg"
 width="226.000000pt" height="229.000000pt" viewBox="0 0 226.000000 229.000000"
 preserveAspectRatio="xMidYMid meet">

<g transform="translate(0.000000,229.000000) scale(0.100000,-0.100000)"
fill="white" stroke="none">
<path d="M987 2223 c-4 -3 -7 -14 -7 -23 0 -13 -19 -21 -77 -34 -272 -59 -500
-269 -595 -546 -30 -90 -32 -104 -34 -252 -2 -131 -5 -165 -23 -213 -12 -31
-68 -212 -126 -402 -128 -422 -131 -451 -62 -518 72 -69 242 -121 497 -152
204 -25 892 -25 1087 0 292 37 478 98 527 171 26 40 21 155 -10 249 -14 42
-69 216 -121 385 l-95 307 -2 145 c-2 173 -18 247 -81 376 -109 224 -309 389
-543 447 -68 17 -86 25 -93 44 -8 22 -13 23 -122 23 -63 0 -117 -3 -120 -7z
m191 -400 l2 -343 -70 0 -70 0 0 345 0 346 68 -3 67 -3 3 -342z m-198 252 c0
-28 -5 -47 -12 -49 -136 -39 -196 -64 -256 -106 -85 -60 -126 -104 -119 -124
9 -24 41 -19 68 10 62 67 230 154 296 154 l23 0 0 -230 c0 -177 -3 -230 -13
-230 -6 0 -44 7 -82 15 -190 40 -355 -7 -492 -141 -34 -34 -65 -59 -68 -56
-13 14 -3 137 20 223 59 227 201 406 404 510 73 37 163 67 204 68 26 1 27 -1
27 -44z m395 13 c184 -61 340 -200 430 -383 55 -111 74 -182 82 -305 l6 -95
-72 67 c-122 116 -250 165 -401 155 -47 -3 -106 -12 -132 -20 -26 -8 -49 -12
-52 -9 -9 8 -7 608 1 616 10 9 62 0 138 -26z m-470 -640 c50 -13 121 -23 189
-25 95 -4 119 -1 180 19 57 18 93 23 181 23 100 0 116 -3 172 -29 l62 -28 50
-157 c28 -86 64 -200 82 -253 l31 -98 -32 -52 c-17 -29 -86 -141 -154 -248
l-123 -195 -43 0 -43 0 -103 163 c-57 89 -104 167 -104 172 0 6 10 8 23 5 49
-10 181 -25 231 -25 56 0 93 18 84 42 -5 12 -35 16 -141 21 -164 7 -202 20
-211 69 -13 69 -95 117 -167 98 -42 -12 -87 -59 -96 -101 -3 -15 -13 -31 -22
-34 -48 -19 -164 -35 -247 -35 -75 0 -96 -3 -100 -15 -4 -8 0 -23 7 -31 12
-14 29 -16 126 -10 61 4 135 13 165 21 29 7 57 10 62 5 4 -5 -40 -83 -101
-177 -109 -166 -111 -168 -149 -171 l-39 -3 -154 243 c-85 134 -154 250 -153
258 1 14 25 94 118 396 l34 111 57 26 c75 33 84 34 173 36 48 0 104 -7 155
-21z m-475 -133 c0 -6 -48 -164 -128 -420 -143 -455 -192 -608 -197 -613 -3
-3 -10 -1 -16 5 -28 28 -3 146 100 483 101 332 145 448 197 515 23 31 44 45
44 30z m1416 -62 c23 -34 49 -81 57 -105 19 -49 190 -606 213 -688 17 -61 15
-171 -2 -177 -12 -4 -21 22 -139 407 -36 118 -95 306 -130 416 -36 111 -65
205 -65 209 0 20 30 -8 66 -62z m-678 -389 c17 -20 22 -37 22 -85 l0 -59 -80
0 -80 0 0 68 c0 53 4 72 18 84 39 35 84 32 120 -8z m-797 -91 c13 -21 75 -121
139 -223 116 -184 116 -185 112 -238 -4 -48 -1 -57 24 -83 22 -23 37 -29 69
-29 22 0 50 7 62 15 20 14 28 12 99 -20 l76 -35 153 0 153 0 76 35 c71 32 79
34 99 20 12 -8 41 -15 65 -15 35 0 49 6 74 31 29 28 30 33 24 85 l-6 55 101
162 c56 89 120 189 142 221 39 58 41 59 49 35 17 -43 108 -344 108 -355 0 -14
-49 -28 -170 -50 -107 -20 -134 -34 -109 -60 15 -14 25 -14 114 1 54 10 118
23 142 30 33 10 45 11 48 2 23 -64 35 -102 35 -112 0 -27 -168 -73 -370 -102
-152 -22 -946 -25 -1110 -5 -166 21 -383 72 -407 96 -4 4 12 71 27 111 l9 23
70 -18 c113 -30 214 -42 229 -26 27 26 3 42 -81 55 -107 16 -197 41 -197 55 0
15 100 337 111 359 13 23 14 23 40 -20z m704 -283 l0 -165 -35 0 -35 0 -3 155
c-1 85 0 160 3 168 3 8 17 12 37 10 l33 -3 0 -165z m130 0 l0 -165 -30 0 -30
0 -3 168 -2 168 32 -3 33 -3 0 -165z m-270 -158 c-3 -7 -15 -12 -27 -10 -22 3
-23 8 -26 87 -3 78 -1 87 25 125 l28 41 3 -114 c1 -63 0 -121 -3 -129z m381
187 c15 -31 19 -165 5 -187 -5 -8 -17 -12 -27 -10 -17 3 -19 15 -22 127 -2
113 -1 123 13 111 9 -8 23 -26 31 -41z m89 -149 c0 -13 -6 -25 -12 -27 -9 -3
-13 6 -13 27 0 21 4 30 13 28 6 -3 12 -15 12 -28z m-575 -5 c0 -26 -14 -33
-25 -15 -9 14 1 40 15 40 5 0 10 -11 10 -25z m-82 -37 c32 -32 -4 -87 -48 -73
-25 8 -37 50 -20 70 15 18 51 20 68 3z m780 0 c32 -32 -4 -87 -48 -73 -25 8
-37 50 -20 70 15 18 51 20 68 3z m-218 -68 c8 -1 -5 -12 -30 -25 -41 -22 -57
-24 -172 -25 -112 0 -133 3 -174 23 l-47 22 64 5 c51 4 289 4 359 0z"/>
<path d="M510 1698 c-43 -69 -50 -138 -15 -138 16 0 75 119 75 151 0 31 -38
23 -60 -13z"/>
<path d="M697 1320 c-86 -22 -159 -80 -193 -155 -61 -130 1 -214 176 -236 139
-17 249 12 317 83 92 96 58 231 -74 290 -48 21 -172 31 -226 18z m186 -66
c135 -46 145 -196 17 -248 -93 -37 -279 -28 -335 16 -19 15 -25 29 -25 59 0
137 182 228 343 173z"/>
<path d="M1355 1324 c-62 -16 -90 -29 -121 -57 -49 -42 -64 -77 -64 -145 0
-53 4 -63 36 -101 20 -23 53 -51 75 -61 87 -45 281 -45 369 0 102 52 106 169
9 275 -51 56 -122 86 -213 90 -39 2 -80 2 -91 -1z m190 -78 c54 -25 111 -82
121 -120 11 -44 0 -88 -26 -107 -58 -43 -236 -49 -323 -11 -105 46 -127 145
-49 215 56 51 193 62 277 23z"/>
</g>
</svg>
